<svg xmlns="http://www.w3.org/2000/svg" viewBox="0 0 64 64" width="64" height="64" role="img" aria-label="Diffusion MRI Preprocessing">
  <circle cx="32" cy="32" r="32" fill="#9D2235"/>
  <path transform="translate(12 12) scale(1.6667)" fill="none" stroke="#ffffff" stroke-width="1.6" stroke-linecap="round" stroke-linejoin="round" d="M12 5a3 3 0 1 0-5.997.125 4 4 0 0 0-2.526 5.77 4 4 0 0 0 .556 6.588A4 4 0 1 0 12 18Z"/>
  <path transform="translate(12 12) scale(1.6667)" fill="none" stroke="#ffffff" stroke-width="1.6" stroke-linecap="round" stroke-linejoin="round" d="M12 5a3 3 0 1 1 5.997.125 4 4 0 0 1 2.526 5.77 4 4 0 0 1-.556 6.588A4 4 0 1 1 12 18Z"/>
  <path transform="translate(12 12) scale(1.6667)" fill="none" stroke="#ffffff" stroke-width="1.6" stroke-linecap="round" stroke-linejoin="round" d="M15 13a4.5 4.5 0 0 1-3-4 4.5 4.5 0 0 1-3 4"/>
  <path transform="translate(12 12) scale(1.6667)" fill="none" stroke="#ffffff" stroke-width="1.6" stroke-linecap="round" stroke-linejoin="round" d="M17.599 6.5a3 3 0 0 0 .399-1.375"/>
  <path transform="translate(12 12) scale(1.6667)" fill="none" stroke="#ffffff" stroke-width="1.6" stroke-linecap="round" stroke-linejoin="round" d="M6.003 5.125A3 3 0 0 0 6.401 6.5"/>
  <path transform="translate(12 12) scale(1.6667)" fill="none" stroke="#ffffff" stroke-width="1.6" stroke-linecap="round" stroke-linejoin="round" d="M3.477 10.896a4 4 0 0 1 .585-.396"/>
  <path transform="translate(12 12) scale(1.6667)" fill="none" stroke="#ffffff" stroke-width="1.6" stroke-linecap="round" stroke-linejoin="round" d="M19.938 10.5a4 4 0 0 1 .585.396"/>
  <path transform="translate(12 12) scale(1.6667)" fill="none" stroke="#ffffff" stroke-width="1.6" stroke-linecap="round" stroke-linejoin="round" d="M6 18a4 4 0 0 1-1.967-.516"/>
  <path transform="translate(12 12) scale(1.6667)" fill="none" stroke="#ffffff" stroke-width="1.6" stroke-linecap="round" stroke-linejoin="round" d="M19.967 17.484A4 4 0 0 1 18 18"/>
</svg>
